<svg id="Layer_1" enable-background="new 0 0 511.375 511.375" height="512" viewBox="0 0 511.375 511.375" width="512" xmlns="http://www.w3.org/2000/svg"><g><g><path d="m511.375 255.688-57.89-64.273 9.064-86.046-84.651-17.921-43.18-75.011-79.03 35.321-10.667 207.93 10.667 207.929 79.031 35.321 43.179-75.011 84.651-17.921-9.064-86.046z" fill="#0ed678"/><path d="m176.656 12.437-43.179 75.011-84.651 17.922 9.064 86.045-57.89 64.273 57.89 64.272-9.064 86.046 84.651 17.921 43.18 75.011 79.031-35.321v-415.859z" fill="#04eb84"/></g><g><path d="m330.439 253.404 53.126-48.833-20.301-22.087-43.351 39.848v-38.641h-30v143.993h30v-42.749l44.889 43.308 20.83-21.59z" fill="#f7f0eb"/><path d="m255.688 215.546-10.667 40.141 10.667 40.141c7.736-11.476 12.258-25.29 12.258-40.141s-4.522-28.665-12.258-40.141z" fill="#f7f0eb"/><path d="m195.949 183.691c-39.699 0-71.997 32.297-71.997 71.997 0 39.699 32.297 71.996 71.997 71.996 24.848 0 46.794-12.654 59.738-31.855v-80.283c-12.944-19.201-34.89-31.855-59.738-31.855zm0 113.993c-23.157 0-41.997-18.839-41.997-41.996s18.839-41.997 41.997-41.997 41.997 18.839 41.997 41.997c0 23.156-18.84 41.996-41.997 41.996z" fill="#fffbf5"/></g></g></svg>